<!-- Generated by IcoMoon.io -->
<svg version="1.1" xmlns="http://www.w3.org/2000/svg" width="1024" height="1024" viewBox="0 0 1024 1024">
<title></title>
<g id="icomoon-ignore">
</g>
<path fill="#000" d="M794.4 248h-52.4v-71.6c0-2.8-2.2-5-5-5h-53.6c-2.8 0-5 2.2-5 5v71.6h-332.8v-71.6c0-2.8-2.2-5-5-5h-53.6c-2.8 0-5 2.2-5 5v71.6h-52.4c-11 0-19.8 9-19.8 19.8v564.6c0 11 9 19.8 19.8 19.8h564.6c11 0 19.8-9 19.8-19.8v-564.4c0.2-11-8.6-20-19.6-20zM774.4 812.8h-524.8v-413.6h525v413.6zM774.4 367.4h-524.8v-79.6h525v79.6z"></path>
<path fill="#000" d="M323 564.2h93.4c1.6 0 3-1.4 3-3v-93.4c0-1.6-1.4-3-3-3h-93.4c-1.6 0-3 1.4-3 3v93.4c0 1.6 1.2 3 3 3z"></path>
</svg>
