
<!-- Generated by IcoMoon.io -->
<!-- Edit by MUKI -->
<svg xmlns="http://www.w3.org/2000/svg">
	<symbol id="icon-park" viewBox="0 0 32 32">
		<path fill="#FFFFFF" d="M0,23.361V0h7.571c2.864,0,4.731,0.116,5.601,0.35c1.338,0.353,2.463,1.113,3.369,2.287
			c0.894,1.174,1.35,2.694,1.35,4.552c0,1.435-0.267,2.636-0.784,3.618c-0.511,0.973-1.174,1.742-1.977,2.299
			c-0.797,0.556-1.624,0.924-2.451,1.107c-1.125,0.228-2.755,0.338-4.883,0.338H4.713v8.812H0z M4.713,3.95v6.632h2.585
			c1.861,0,3.095-0.125,3.728-0.371c0.626-0.24,1.119-0.623,1.472-1.146c0.359-0.52,0.535-1.122,0.535-1.815
			c0-0.851-0.249-1.548-0.748-2.101c-0.498-0.553-1.131-0.9-1.897-1.037C9.821,4.004,8.69,3.95,6.994,3.95H4.713z"/>
	</symbol>
</svg>






